<svg role="img" viewBox="0 0 64 64" xmlns="http://www.w3.org/2000/svg"><title>All Nippon Airways</title><path fill="#00146e" d="m51.908 40.116 9.416-16.3H50.84l-9.42 16.3Z"/><path fill="#00146e" d="M18.238 29.228a.29.29 0 0 1 .267-.268c.134 0 .267.068.267.2l3.006 10.89h4.875l2.54-14.093h-2.141L25.118 36.91a.286.286 0 0 1-.267.268c-.134 0-.267-.067-.267-.2l-3.005-11.024h-4.877l-2.471 14.162h2.137ZM9.82 35.307l-.4-6.347a.34.34 0 0 0-.267-.334c-.135-.07-.333.067-.402.202L2.405 40.121H0l8.016-14.167h4.744l.935 14.162H10.22l-.133-1.535a.6.6 0 0 0-.602-.602H4.212l1.205-2.138h4.005c.198.067.466-.2.398-.534m26.725.068-.537-6.281a.306.306 0 0 0-.334-.266.35.35 0 0 0-.268.134l-5.74 11.222H27.19l7.349-14.23h4.675l1.273 14.161h-3.542l-.134-1.535a.6.6 0 0 0-.602-.602h-4.945l1.07-2.138h3.674a.446.446 0 0 0 .537-.465"/><path fill="#00aff0" d="m61.328 23.816-9.42 16.3h2.605L64 23.816Z"/></svg>