<svg role="img" viewBox="0 0 64 64" xmlns="http://www.w3.org/2000/svg" fill="#ed1c24"><title>Air China</title><path fill-rule="evenodd" d="M4.908 23.168c1.544-.096 2.808 1 3.088 2.432v18.976c-.032 5.376 4.296 9.712 9.688 9.712 5.28 0 9.608-4.328 9.688-9.712v-13.68c-.104-10.424 8.336-18.88 18.728-18.976C53.436 11.864 59.444 6.856 61.076 0c-3.768 2.872-8.568 4.688-13.656 4.64-1.008.048-.904.112-1.76 0h.216c-14.584 0-26.144 11.664-26.208 26.256v12.8-.216c-.008.104-.008.104 0 .216-.008 1.304-1.144 2.44-2.64 2.424-1.312.016-2.456-1.128-2.424-2.424-.024-.112-.024-.12 0-.216V25.824c-.024-1.784-1.392-3.152-3.08-3.088.144-1.008 1-1.768 1.984-1.768.368 0 .68.072.88.224.424.096.904.176 1.32.216 2.76-.048 4.928-2.224 4.848-4.856.088-.104.08-.16 0-.216-1.032 1.408-2.784 2.336-4.848 2.424-.256-.184-.752-.176-1.104-.224-2.272.04-4.104 1.872-4.184 4.192H2.924v.44h2.208zM46.1 20.744c-5.608-.048-10.168 4.512-10.136 10.152v-.216 15.888c-.04 7.832-6.272 14.128-14.096 14.12-5.424 0-10.176-3.152-12.552-7.728 2.136 2.04 5.072 3.36 8.368 3.312 6.4.056 11.64-5.2 11.672-11.696v-13.68c-.024-9.288 7.488-16.808 16.744-16.768h-.44c4.968-.04 9.464-2.072 12.776-5.296-.52 6.616-6.056 11.864-12.776 11.92zm-2.424 14.784c-.072-1.488 1.048-2.616 2.424-2.648 1.4.032 2.528 1.16 2.424 2.648.104.208.048.496 0 .664a1.22 1.22 0 0 1-1.32.888c-.584.064-1.128-.48-1.104-1.104-.024-.216.008-.368 0-.448v-.216c-.152.584-.256 1.104-.224 1.544-.032 2.536 1.936 4.512 4.408 4.416 1.72.096 3.24-.944 3.968-2.424.6-1.128.968-2.48.88-3.976.088-4.696-3.76-8.56-8.584-8.608-4.696.048-8.552 3.912-8.592 8.608v11.696c0 8.92-7.168 16.104-16.08 16.112a14.7 14.7 0 0 1-3.52-.44h-.232c2.24 1.064 4.856 1.696 7.712 1.768 9.744-.072 17.72-8.056 17.616-17.872V35.312z" class="hcf34ce8" clip-rule="evenodd"/></svg>