<svg role="img" viewBox="0 0 64 64" xmlns="http://www.w3.org/2000/svg"><title>China Southern Airlines</title><path fill="#0093d0" d="M64 9.176H45.683L0 54.825h45.683z" class="zfcca103"/><path fill="#fff" d="M42.585 26.745a2.102 2.102 0 0 1 .924-3.989c1.141 0 2.1.924 2.1 2.1 0 .822-.496 1.57-1.21 1.889v.605c.64.068 1.427.32 1.923.57.211-.034.497-.034.782-.034 2.636 0 4.49 1.746 4.49 4.131 0 1.495-1.317 2.853-2.812 2.853s-2.853-1.46-2.568-2.956c0 0-.143.497-.143 1.142v7.555c-.068.855-1.21 5.592-6.556 5.592s-6.488-4.742-6.556-5.592V33.05c0-.605-.177-1.141-.177-1.141.285 1.426-1.107 2.955-2.568 2.955-1.495 0-2.813-1.352-2.813-2.853 0-2.385 1.854-4.13 4.49-4.13.286 0 .571 0 .782.033.462-.25 1.284-.536 1.923-.57v-.605a2.102 2.102 0 0 1 .924-3.989c1.176 0 2.1.925 2.1 2.1 0 .822-.496 1.57-1.21 1.889v.782c.178.068.355.108.537.21.32-.712.965-1.249 1.712-1.494v-.64a2.09 2.09 0 0 1-1.21-1.888c0-1.141.925-2.1 2.1-2.1a2.102 2.102 0 0 1 .925 3.989v.639c.747.25 1.392.782 1.711 1.495l.537-.211z" class="p9a85615"/><path fill="#ed1b2f" d="M50.71 32.051c0-1.957-1.318-3.526-4.062-3.526-1.82 0-3.955 1.535-3.955 5.415v5.775c.782-.537 1.889-.999 2.46-.999v-5.38c0-2.066 1.495-2.671 2.174-2.671-.394.354-.64.782-.64 1.392 0 1.107.89 1.997 1.998 1.997 1.135-.005 1.991-.827 2.025-2.003m-22.556 0c0-1.957 1.318-3.526 4.063-3.526 1.82 0 3.988 1.535 3.988 5.415v5.775c-.781-.537-1.888-.999-2.459-.999v-5.38c0-2.066-1.495-2.671-2.174-2.671.394.354.64.782.64 1.392a2.014 2.014 0 0 1-1.998 1.997c-1.17-.005-2.026-.827-2.06-2.003" class="a5a81918"/><path fill="#ed1b2f" d="M39.446 45.38c4.56 0 5.592-3.81 5.735-4.81v-1.283c-1.426.354-2.67 1.107-3.526 2.242-.286-1.318-1.141-2.425-2.209-3.172a5.37 5.37 0 0 0-2.208 3.172c-.856-1.141-2.1-1.888-3.526-2.242v1.284c.108.998 1.141 4.81 5.734 4.81m.326-20.206v1.604c.781.108 1.46.639 1.712 1.284a4.98 4.98 0 0 0-2.032 2.67 4.96 4.96 0 0 0-2.031-2.67 2.24 2.24 0 0 1 1.712-1.284v-1.604a1.49 1.49 0 0 1-1.142-1.426c0-.822.68-1.46 1.461-1.46.822 0 1.461.638 1.461 1.46a1.496 1.496 0 0 1-1.141 1.426" class="a5a81918"/><path fill="#ed1b2f" d="M35.743 26.317v1.677c1.997.394 3.424 2.494 3.424 4.457v5.415c-.925.536-1.855 1.638-2.14 2.528-.068-.069-.143-.177-.251-.251v-6.985c0-2.1-1.141-4.24-3.138-4.918 0 0 .639-.286 1.46-.286v-1.677a1.46 1.46 0 0 1-1.14-1.427c0-.821.638-1.46 1.46-1.46s1.46.639 1.46 1.46c.006.72-.496 1.29-1.135 1.467m8.052 0v1.637c.821 0 1.46.286 1.46.286-2.031.713-3.138 2.853-3.138 4.918v6.985l-.251.25c-.285-.924-1.21-2.03-2.14-2.527V32.45c0-1.957 1.427-4.063 3.424-4.457v-1.712a1.46 1.46 0 0 1-1.141-1.426c0-.822.639-1.46 1.46-1.46.822 0 1.461.638 1.461 1.46a1.415 1.415 0 0 1-1.135 1.46" class="a5a81918"/></svg>