<svg role="img" viewBox="0 0 64 64" xmlns="http://www.w3.org/2000/svg"><title>EVA Air</title><g fill-rule="evenodd" clip-rule="evenodd"><path fill="#d06537" d="M60.925 8.795H64L47.814 55.298h-3.332A734 734 0 0 1 60.925 8.795" class="z5586a39"/><path fill="#409e54" d="m30.882 21.131 1.316 5.732 2.854-1.742.204.146-1.118 3.07 4.694.966-.023.606-4.648 1.02 1.59 3.506-.46.303-3.134-1.585-1.27 6.541h-.273l-1.317-6.54-2.993 1.653-.356-.372 1.573-3.483-5.102-1.043-.082-.582 5.149-.944-1.2-3 .198-.18 2.965 1.654 1.165-5.731z" class="wd198733"/><path fill="#d06537" d="m14.625 36.502 18.773-23.636 2.959 1.34a16 16 0 0 1 2.918 1.27 16.87 16.87 0 0 1 6.279 6.261c.372.635.675 1.23.955 1.91.309.746.547 1.44.763 2.214 2.027 7.438-1.293 15.43-7.997 19.238-.932.519-1.817.92-2.82 1.288-3.797 1.403-7.728 1.403-11.526 0-.973-.35-1.916-.78-2.819-1.288-2.668-1.543-4.73-3.593-6.285-6.26a24 24 0 0 1-1.2-2.337m4.398.618h-2.458c.175.361.35.681.553 1.03a15 15 0 0 0 2.557 3.31l.338.32.169.157h3.273a16.8 16.8 0 0 1-2.533-4.811zm-.839-.571 2.557.023a21.3 21.3 0 0 1-.943-5.644l-3.827 4.829c.116.28.221.536.344.815zm4.677-6.075-2.778.058c.058 2.085.367 3.978.967 5.982l4.793-.04a41.4 41.4 0 0 1-.46-6zm-.536 11.94h-1.549a14 14 0 0 0 2.196 1.515 13.5 13.5 0 0 0 3.576 1.613c.856.268 1.643.49 2.51.7l-2.801-1.492a5 5 0 0 1-.903-.553 7 7 0 0 1-.856-.78 9 9 0 0 1-.798-.997h-1.375zm2.662-.605 2.19.023a20 20 0 0 1-.716-2.29c-.21-.832-.39-1.67-.53-2.515l-4.741.058a20.4 20.4 0 0 0 1.677 3.483c.268.466.536.874.856 1.305zm5.551.576h-2.895a13 13 0 0 0 .78 1.707c.333.536.694.99 1.148 1.433.204.192.402.355.63.512.104.07.209.128.325.175zm-.885 3.443a7.4 7.4 0 0 1-.833-.932 9.4 9.4 0 0 1-.757-1.154q-.375-.663-.664-1.363l-3.384.053c.39.477.78.88 1.24 1.281.42.367.839.653 1.322.92l2.89 1.561c.25.082.5.105.757.053a3 3 0 0 1-.571-.42m1.194-27.673h2.895a12 12 0 0 0-.78-1.706 7 7 0 0 0-.537-.845 1.3 1.3 0 0 0-.274-.291l-1.31 1.671zm.029 28.016a4 4 0 0 0 .728-.5 5.6 5.6 0 0 0 .687-.694 8.6 8.6 0 0 0 1.433-2.516h-2.871zm.32.04c.239.053.472.048.71-.022a1.4 1.4 0 0 0 .35-.14l2.627-1.445a7.2 7.2 0 0 0 1.73-1.258c.285-.273.553-.57.804-.873l-3.448-.012a14 14 0 0 1-.78 1.584c-.263.46-.566.897-.91 1.3a3.8 3.8 0 0 1-.704.651 4 4 0 0 1-.379.216M32.565 15.5c.577.862 1.025 1.7 1.433 2.656l3.384-.052a10 10 0 0 0-1.24-1.282 7.4 7.4 0 0 0-1.323-.92l-2.202-1.188-.349.43c.116.117.21.228.297.356m1.002 30.398a15.7 15.7 0 0 0 4.887-1.922 15.3 15.3 0 0 0 2.353-1.636l-3.087.116a8.8 8.8 0 0 1-1.66 1.747 6 6 0 0 1-.897.589l-2.476 1.304c.309-.04.583-.104.88-.198m2.836-27.165-2.19-.024c.292.775.519 1.492.717 2.29.215.856.378 1.642.53 2.516l4.741-.059a20 20 0 0 0-1.677-3.477 11 11 0 0 0-.857-1.304zm1.614 18.335-2.58.035a22.6 22.6 0 0 1-1.247 4.811h1.602l1.887-.07a15.4 15.4 0 0 0 2.51-4.776zm-.274-.512 2.639-.053c.588-1.992.879-3.879.914-5.952l-5.306.006a41 41 0 0 1-.46 5.999zm1.322-18.429h1.55a13.5 13.5 0 0 0-2.196-1.514 13.5 13.5 0 0 0-3.577-1.614 31 31 0 0 0-2.02-.565l-.07.1 2.382 1.257c.332.158.611.332.902.554.315.244.589.489.857.78.297.326.547.635.798.996zm.326 23.77h1.864l.344-.315.169-.163a16 16 0 0 0 2.557-3.308c.204-.344.378-.664.559-1.03h-4.357a15.9 15.9 0 0 1-2.534 4.81zm3.815-17.905-2.557-.023a21.2 21.2 0 0 1 .95 6.005h4.823a15.5 15.5 0 0 0-1.346-6.005zm-.838-.576h2.458q-.256-.525-.554-1.031a15 15 0 0 0-2.557-3.309l-.337-.32-.17-.157h-3.267a16.9 16.9 0 0 1 2.534 4.81zm.256 13.122h2.499a17 17 0 0 0 .803-2.271 15.5 15.5 0 0 0 .542-3.728h-4.823a20.8 20.8 0 0 1-.949 6.005zm-6.652-7.944-.436-.088a39 39 0 0 0-.449-4.426h-3.559l-.128-.583 3.664.024-.192-1.165a25 25 0 0 0-.833-3.338l-.082-.256-.017-.053h-3.093v2.394l-.024-.099h-.273l-.012.053v-2.43l-1.03.007-2.989 3.757c-.064.36-.116.687-.169 1.048l3.705.006-.129.6h-3.675a43 43 0 0 0-.378 4.496l-.443.082a40 40 0 0 1 .431-4.637h-.483L20.6 30.008l2.773-.017 2.44.5c.006 1.195.064 2.394.18 3.583l-.104.233.146.151c.07.693.157 1.322.262 2.01h3.628l.117.582-3.716-.023.192 1.165c.21 1.164.466 2.213.827 3.343l.082.256.017.053h3.093v-2.307l.006.035h.274l.023-.122v2.475h3.07c.524-1.62.879-3.128 1.118-4.811l-3.734-.006.123-.6h3.71c.093-.675.163-1.293.227-1.98l.326-.216-.262-.588c.076-1.072.11-2.05.105-3.128l-.501.006 2.405-.524h1.101l2.779-.058a22.2 22.2 0 0 0-.967-5.982l-4.794.04c.233 1.538.367 2.954.425 4.515" class="z5586a39"/><path fill="#409e54" d="m37.9 8.702 21.138.006-15.843 45.751a1.25 1.25 0 0 1-1.2.833H0L35.89 9.675a2.49 2.49 0 0 1 2.01-.973m-22.92 28.19 18.773-23.635 2.714.914a16 16 0 0 1 2.913 1.27c2.667 1.543 4.73 3.594 6.284 6.261.373.635.67 1.23.956 1.91.308.746.547 1.44.763 2.214 2.027 7.438-1.293 15.43-7.997 19.239-.903.5-1.847.931-2.82 1.287-3.797 1.398-7.729 1.398-11.526 0-.973-.35-1.917-.78-2.82-1.287-2.667-1.544-4.729-3.6-6.284-6.262a15 15 0 0 1-.955-1.91" class="wd198733"/></g></svg>