<svg role="img" viewBox="0 0 24 24" xmlns="http://www.w3.org/2000/svg" fill="#0c0243"><title>Finnair</title><path d="M16.162 6.863c-1.134.028-1.397.045-1.664.115a3 3 0 0 0-.798.35c-.36.243-1.176 1.1-2.688 2.833-2.85 3.275-2.854 3.278-3.17 3.396-.32.118-.687.146-2.449.177-.943.017-1.776.048-1.852.066-.295.073-.64.378-2.396 2.12L0 17.056l.139.02c.575.087 5.677.101 7.394.018 1.048-.049 1.353-.115 1.832-.396.482-.284.94-.745 2.008-2.018l.555-.666.211-.018c.115-.01.885-.027 1.71-.038 1.55-.02 2.095-.052 2.515-.138.523-.108.992-.41 1.592-1.013.555-.562 1.172-1.29 1.172-1.388 0-.065-.434-.08-2.77-.083-1.29-.003-2.429-.014-2.533-.024l-.187-.024.17-.19c.093-.105.353-.39.58-.636l.411-.44h1.967c3.333-.004 4.065-.07 4.793-.437.472-.236.885-.635 1.658-1.603q.827-1.035.78-1.082c-.04-.04-6.37-.07-7.835-.038"/></svg>