<svg role="img" viewBox="0 0 64 64" xmlns="http://www.w3.org/2000/svg" fill="#003876"><title>JetBlue Airways</title><path d="M2.08 26.156h2.465V39.37c0 2.053-1.499 3.433-3.578 3.433H0v-2.32h.7c.845 0 1.38-.389 1.38-1.307zm0-4.958h2.465v2.466H2.079zm14.163 9.986c0-3.167-2.347-5.174-5.052-5.174-2.371 0-5.053 1.548-5.053 6.311 0 5.029 2.925 6.238 5.441 6.238 1.642 0 3.217-.58 4.424-1.982l-1.788-1.523c-.726.748-1.742 1.186-2.684 1.186-1.693 0-2.925-1.016-2.925-3.025h7.64v-2.03zm-7.642 0c.048-1.86 1.137-2.851 2.587-2.851s2.514.99 2.587 2.851zm9.597-8.752h2.466v3.724h1.787v1.885h-1.787v7.132c0 .678.264.918.866.918h.921v2.32h-1.28c-1.717 0-2.973-1.091-2.973-3.022v-7.348h-1.234v-1.885h1.234zm15.06 7.132v-.048c2.007-.894 2.539-2.274 2.539-3.7 0-2.709-1.742-4.618-5.101-4.618h-6.673v17.215h7.253c2.587 0 4.788-1.909 4.788-4.882-.003-1.742-.92-3.532-2.806-3.967m-6.624-6.043h3.77c1.885 0 2.781 1.137 2.781 2.465 0 1.353-.893 2.466-2.781 2.466h-3.77zm4.013 12.424h-4.013v-5.171h4.016c1.933 0 2.803 1.231 2.803 2.587-.003 1.353-.87 2.584-2.806 2.584m6.833-14.747h2.465v14.048c0 .556.313.845.92.845h.846v2.32h-1.089c-1.79 0-3.143-.773-3.143-2.973zm5.27 4.958h2.466v7.302c0 1.67 1.04 2.636 2.444 2.636 1.377 0 2.417-.967 2.417-2.636v-7.302h2.468v12.257h-2.468v-1.307h-.046c-.775.967-1.888 1.453-3.168 1.453-1.933 0-4.11-1.474-4.11-4.256v-8.147zm21.226 5.028c0-3.167-2.347-5.174-5.053-5.174-2.368 0-5.055 1.548-5.055 6.311 0 5.029 2.927 6.238 5.441 6.238 1.648 0 3.217-.58 4.426-1.982l-1.79-1.523c-.726.748-1.74 1.186-2.682 1.186-1.693 0-2.927-1.016-2.927-3.025h7.64zm-7.643 0c.052-1.86 1.137-2.851 2.587-2.851s2.515.99 2.587 2.851z" class="e2cfc955"/></svg>